<?xml version="1.0" standalone="no"?>
<!DOCTYPE svg PUBLIC "-//W3C//DTD SVG 20010904//EN"
 "http://www.w3.org/TR/2001/REC-SVG-20010904/DTD/svg10.dtd">
<svg version="1.0" xmlns="http://www.w3.org/2000/svg"
 width="512.000000pt" height="512.000000pt" viewBox="0 0 512.000000 512.000000"
 preserveAspectRatio="xMidYMid meet">

<rect width="100%" height="100%" fill="none" />
<g transform="translate(0.000000,512.000000) scale(0.100000,-0.100000)"
fill="#080808" stroke="none">
<path d="M3968 5110 c-397 -67 -700 -378 -734 -753 -5 -63 4 -170 22 -232 5
-19 1 -20 -120 -16 -90 2 -148 -2 -208 -14 -368 -74 -659 -372 -697 -714 -7
-70 -1 -182 14 -241 l6 -25 -138 -1 c-149 0 -223 -14 -342 -61 -253 -101 -450
-319 -518 -573 -26 -100 -24 -265 6 -360 27 -87 79 -196 127 -263 19 -26 34
-50 34 -54 0 -4 -115 -123 -255 -263 -252 -253 -266 -270 -249 -315 9 -23 61
-47 87 -39 12 3 133 117 270 252 l247 247 83 -83 82 -82 -675 -675 c-371 -371
-687 -680 -702 -686 -83 -34 -179 55 -153 143 4 12 155 172 336 353 353 355
352 353 308 409 -14 18 -30 26 -52 26 -29 0 -67 -35 -369 -337 -185 -186 -344
-354 -354 -373 -13 -25 -19 -57 -19 -110 0 -65 4 -82 31 -130 34 -61 100 -113
167 -131 51 -14 133 -6 178 16 19 9 345 328 726 708 l691 690 64 -41 c91 -59
201 -107 292 -127 103 -23 261 -16 361 15 220 68 409 233 512 445 67 140 86
224 87 392 1 79 3 143 6 143 3 0 23 -5 45 -10 65 -16 226 -13 302 6 180 44
360 167 469 320 49 69 57 111 24 144 -23 23 -68 26 -92 8 -9 -7 -37 -41 -62
-75 -83 -114 -227 -212 -362 -248 -94 -25 -228 -21 -313 8 -145 51 -289 154
-458 331 -208 215 -294 379 -294 561 -1 132 30 231 107 347 66 99 160 179 279
238 136 66 223 84 379 77 176 -8 179 -10 256 -119 85 -121 317 -353 438 -438
112 -79 113 -80 121 -303 5 -142 8 -160 25 -173 47 -34 110 -3 122 61 3 19 5
89 3 155 -4 117 -3 121 16 116 183 -45 336 -27 510 58 393 193 580 673 434
1111 -105 313 -332 540 -644 644 -141 47 -324 63 -457 41z m377 -175 c168 -49
328 -150 422 -268 232 -288 267 -656 92 -955 -43 -72 -168 -197 -240 -240 -74
-43 -155 -71 -251 -85 -200 -29 -406 72 -659 323 -249 248 -348 450 -321 662
35 282 261 514 567 582 104 23 274 15 390 -19z m-2089 -1979 l62 -11 63 -95
c86 -131 347 -391 476 -474 l91 -60 13 -85 c60 -426 -228 -819 -622 -847 -198
-14 -384 82 -630 326 -291 289 -382 530 -294 783 85 245 320 433 590 470 59 8
191 5 251 -7z"/>
</g>
</svg>
