<?xml version="1.0" standalone="no"?>
<!DOCTYPE svg PUBLIC "-//W3C//DTD SVG 20010904//EN"
 "http://www.w3.org/TR/2001/REC-SVG-20010904/DTD/svg10.dtd">
<svg version="1.0" xmlns="http://www.w3.org/2000/svg"
 width="512.000000pt" height="512.000000pt" viewBox="0 0 512.000000 512.000000"
 preserveAspectRatio="xMidYMid meet">

<rect width="100%" height="100%" fill="none" />
<g transform="translate(0.000000,512.000000) scale(0.100000,-0.100000)"
fill="#080808" stroke="none">
<path d="M2501 5014 c-17 -14 -45 -54 -62 -90 -64 -129 -48 -248 52 -405 89
-138 92 -208 13 -302 -31 -37 -31 -81 1 -112 53 -54 122 -19 176 91 64 129 48
248 -52 405 -89 138 -92 208 -13 302 31 37 31 81 -1 112 -32 33 -75 32 -114
-1z"/>
<path d="M1861 4694 c-17 -14 -45 -54 -62 -90 -64 -129 -48 -248 52 -405 89
-138 92 -208 13 -302 -31 -37 -31 -81 1 -112 53 -54 122 -19 176 91 64 129 48
248 -52 405 -89 138 -92 208 -13 302 31 37 31 81 -1 112 -32 33 -75 32 -114
-1z"/>
<path d="M3141 4694 c-17 -14 -45 -54 -62 -90 -64 -129 -48 -248 52 -405 89
-138 92 -208 13 -302 -31 -37 -31 -81 1 -112 53 -54 122 -19 176 91 64 129 48
248 -52 405 -89 138 -92 208 -13 302 31 37 31 81 -1 112 -32 33 -75 32 -114
-1z"/>
<path d="M1305 3415 l-25 -24 0 -1199 c0 -807 3 -1218 11 -1258 17 -95 78
-210 149 -282 70 -70 121 -103 219 -141 l66 -26 1218 -3 1217 -2 0 -60 c0 -76
-22 -102 -105 -125 -84 -24 -128 -48 -167 -95 l-35 -40 -1293 0 -1293 0 -35
40 c-39 47 -83 71 -167 95 -83 23 -105 49 -105 126 l0 59 175 0 c173 0 176 0
200 25 33 32 33 78 0 110 l-24 25 -231 0 -231 0 -25 -25 c-26 -26 -26 -27 -22
-163 3 -129 5 -140 31 -185 35 -58 91 -101 154 -116 92 -22 122 -40 133 -82
20 -75 -101 -69 1440 -69 1541 0 1420 -6 1440 69 11 42 41 60 133 82 63 15
119 58 154 116 26 45 28 56 31 185 4 136 4 137 -22 163 l-25 25 -297 0 -296 0
16 22 c58 80 97 147 117 201 23 60 23 73 27 494 l3 433 -25 25 c-33 33 -79 33
-111 0 l-25 -24 0 -256 0 -255 -855 0 -856 0 -24 -25 c-33 -32 -33 -78 0 -110
l24 -25 857 0 857 0 -5 -91 c-5 -78 -11 -100 -42 -163 -43 -88 -102 -146 -194
-189 l-67 -32 -815 0 -815 0 -67 32 c-93 44 -151 100 -196 191 l-37 76 -3 288
-3 288 456 0 456 0 24 25 c33 32 33 78 0 110 l-24 25 -456 0 -455 0 0 120 0
120 215 0 c216 0 216 0 240 25 33 32 33 78 0 110 -24 25 -24 25 -240 25 l-215
0 0 120 0 120 695 0 696 0 24 25 c33 32 33 78 0 110 l-24 25 -696 0 -695 0 0
400 0 400 1120 0 1120 0 0 -200 0 -200 -455 0 -456 0 -24 -25 c-33 -32 -33
-78 0 -110 l24 -25 456 0 455 0 0 -120 0 -120 -135 0 c-131 0 -137 -1 -160
-25 -33 -32 -33 -78 0 -110 23 -24 29 -25 160 -25 l135 0 0 -120 0 -120 -695
0 -696 0 -24 -25 c-33 -32 -33 -78 0 -110 l24 -25 751 0 751 0 24 25 25 24 0
711 0 711 -25 24 -24 25 -1231 0 -1231 0 -24 -25z"/>
<path d="M1945 2855 c-16 -15 -25 -36 -25 -55 0 -19 9 -40 25 -55 23 -24 31
-25 135 -25 104 0 112 1 135 25 16 15 25 36 25 55 0 19 -9 40 -25 55 -23 24
-31 25 -135 25 -104 0 -112 -1 -135 -25z"/>
<path d="M2745 1655 c-16 -15 -25 -36 -25 -55 0 -19 9 -40 25 -55 23 -24 28
-25 175 -25 147 0 152 1 175 25 16 15 25 36 25 55 0 19 -9 40 -25 55 -23 24
-28 25 -175 25 -147 0 -152 -1 -175 -25z"/>
<path d="M1545 1255 c-16 -15 -25 -36 -25 -55 0 -19 9 -40 25 -55 21 -22 33
-25 95 -25 62 0 74 3 95 25 16 15 25 36 25 55 0 19 -9 40 -25 55 -21 22 -33
25 -95 25 -62 0 -74 -3 -95 -25z"/>
</g>
</svg>
