<?xml version="1.0" standalone="no"?>
<!DOCTYPE svg PUBLIC "-//W3C//DTD SVG 20010904//EN"
 "http://www.w3.org/TR/2001/REC-SVG-20010904/DTD/svg10.dtd">
<svg version="1.0" xmlns="http://www.w3.org/2000/svg"
 width="512.000000pt" height="512.000000pt" viewBox="0 0 512.000000 512.000000"
 preserveAspectRatio="xMidYMid meet">

<rect width="100%" height="100%" fill="none" />
<g transform="translate(0.000000,512.000000) scale(0.100000,-0.100000)"
fill="#ffffff" stroke="none">
<path d="M4978 5087 c-24 -18 -601 -471 -1282 -1006 l-1240 -974 -87 17 c-332
64 -699 27 -982 -98 -62 -27 -84 -57 -73 -100 3 -14 18 -33 32 -43 29 -19 22
-20 214 46 158 54 280 73 475 74 239 1 426 -39 620 -132 213 -102 332 -233
366 -403 32 -158 -89 -360 -283 -473 -317 -186 -799 -227 -1184 -99 -273 90
-464 262 -505 454 -20 95 12 213 85 309 31 42 33 70 5 105 -31 39 -78 36 -117
-9 -41 -46 -77 -109 -104 -181 -21 -55 -22 -79 -26 -379 l-4 -320 -418 -328
c-383 -300 -421 -332 -444 -379 -91 -183 92 -379 281 -303 21 9 160 100 308
204 l270 188 6 -76 c14 -169 81 -302 211 -421 l49 -45 -263 -152 c-145 -84
-278 -167 -295 -185 -42 -43 -63 -96 -63 -155 1 -130 122 -236 249 -219 29 4
194 82 500 236 l455 231 94 -12 c117 -15 386 -7 507 15 410 74 719 282 811
545 13 36 26 92 29 126 l7 60 326 165 c355 179 368 189 340 247 -7 15 -25 34
-41 43 -32 18 134 99 -1825 -895 -667 -338 -1221 -615 -1231 -615 -34 0 -71
39 -71 74 0 38 12 51 90 96 57 34 86 51 1100 640 344 199 747 434 895 520 149
86 412 239 585 340 335 195 1246 723 1545 897 192 112 225 136 225 164 0 33
-22 68 -51 79 -35 15 61 68 -1017 -559 -475 -275 -865 -501 -867 -501 -2 0 -5
138 -7 308 -5 346 -9 368 -88 491 l-39 61 32 23 c18 13 475 331 1017 707 542
375 993 691 1003 702 23 27 22 59 -4 92 -44 56 -8 78 -1080 -667 -547 -381
-1014 -705 -1036 -720 l-41 -28 -63 46 c-35 26 -105 67 -156 92 l-92 45 27 22
c15 13 562 442 1217 955 655 514 1202 946 1218 962 34 36 35 72 2 104 -33 34
-65 31 -117 -8z m-3727 -3216 c196 -120 432 -186 714 -198 407 -17 771 97
1006 314 l59 55 0 -116 0 -116 -37 -23 c-72 -45 -1678 -976 -1694 -982 -11 -4
-42 18 -98 70 -63 61 -89 93 -118 153 l-38 76 -3 470 -3 469 65 -61 c36 -33
102 -83 147 -111z m-361 -310 l0 -119 -319 -221 c-340 -236 -358 -245 -401
-199 -34 37 -26 72 27 118 77 66 677 538 686 539 4 1 7 -53 7 -118z m2125
-463 c-44 -150 -196 -298 -393 -383 -164 -71 -393 -119 -546 -113 l-78 3 504
256 c277 141 507 257 511 258 5 1 5 -9 2 -21z"/>
<path d="M1920 2760 c-155 -19 -281 -71 -377 -155 -66 -58 -93 -113 -93 -191
0 -93 35 -155 120 -210 134 -86 284 -119 510 -111 200 7 345 49 459 134 46 35
81 114 81 184 0 115 -75 205 -235 279 -131 62 -314 89 -465 70z m298 -166 c79
-21 172 -69 215 -111 74 -71 39 -144 -90 -193 -281 -106 -743 -33 -743 118 0
47 12 66 76 111 127 91 358 123 542 75z"/>
<path d="M4545 2065 c-264 -134 -485 -252 -492 -261 -31 -43 5 -114 58 -114
36 0 955 462 987 497 12 13 22 35 22 49 0 31 -42 74 -72 74 -13 -1 -239 -111
-503 -245z"/>
</g>
</svg>
